<svg version="1.2" xmlns="http://www.w3.org/2000/svg" viewBox="0 0 656 364" width="656" height="364">
	<style>
		.s0 { fill: #ff746c } 
	</style>
	<g id="Background">
		<path id="Path 1" fill-rule="evenodd" class="s0" d="m182.71 7.16c16 0.49 27.67 1.89 37.51 4.49 7.86 2.08 22.33 7.77 32.15 12.64 9.83 4.87 21.08 11.55 32.15 20.86l-18.75 23.73-8.49-6.13c-4.66-3.38-14.51-8.88-21.88-12.24-7.36-3.36-18.62-7.58-25-9.37-8.12-2.28-17.79-3.28-32.15-3.3-14.19-0.03-24.41 0.96-33.05 3.21-6.87 1.78-18.53 6.02-25.9 9.41-7.37 3.39-18.22 9.61-24.11 13.83-5.9 4.22-15.14 12.41-20.54 18.2-5.41 5.79-13 15.75-16.87 22.13-3.88 6.38-8.92 16.42-11.2 22.31-2.28 5.9-5.34 16.55-6.79 23.67-1.46 7.12-2.65 20.18-2.65 29.02 0 8.85 1.14 21.51 2.54 28.14 1.4 6.63 4.67 17.68 7.26 24.56 2.59 6.87 7.68 17.31 11.3 23.18 3.62 5.88 10.6 15.03 15.51 20.35 4.92 5.32 13.76 13.07 19.65 17.24 5.9 4.16 14.94 9.67 20.1 12.25 5.15 2.57 16.41 6.78 25 9.34 13.14 3.92 19.19 4.68 37.96 4.73 16.99 0.06 25.53-0.79 35.72-3.55 7.37-1.99 17.82-5.82 23.22-8.51 5.41-2.7 13.85-7.71 27.69-17.38l8.93 10.36c4.91 5.7 8.93 11.18 8.93 12.18 0 1-4.02 4.87-8.93 8.6-4.91 3.73-15.36 9.97-23.22 13.86-7.86 3.9-21.12 8.73-29.47 10.75-8.35 2.02-22.82 4.16-32.15 4.76-9.9 0.63-23.67 0.19-33.05-1.07-8.84-1.19-23.73-4.71-33.1-7.83-9.36-3.12-23.83-9.68-32.15-14.6-10.44-6.16-20.66-14.46-32.99-26.79-9.82-9.82-20.46-22.28-23.64-27.68-3.18-5.41-8.73-16.66-12.33-25.01-3.6-8.35-8.11-22.82-10.02-32.15-2.82-13.79-3.31-21.82-2.63-42.87 0.69-21.14 1.7-28.77 5.53-41.53 2.58-8.59 7.61-21.46 11.18-28.58 3.58-7.12 9.78-17.77 13.79-23.66 4.02-5.9 12.55-16.01 18.96-22.47 6.42-6.47 16.49-14.99 22.38-18.96 5.9-3.96 15.14-9.43 20.54-12.17 5.41-2.73 14.85-6.86 20.99-9.17 6.14-2.32 17.39-5.4 25.01-6.86 9.42-1.79 21.26-2.41 37.06-1.92zm273.89 0.99l54.18 0.03c41.64 0.02 56.76 0.64 65.34 2.68 6.14 1.46 15.78 4.99 21.43 7.85 5.65 2.86 13.84 8.28 18.2 12.05 4.37 3.78 11.03 11.69 14.82 17.58 3.79 5.89 8.53 15.94 10.52 22.33 2.56 8.17 3.64 16.63 3.67 28.58 0.03 12.78-0.92 19.83-3.85 28.58-2.14 6.38-6.44 15.56-9.56 20.39-3.12 4.83-9.28 11.94-13.7 15.81-4.42 3.87-11.86 8.96-16.53 11.32-4.66 2.35-13.5 5.47-19.64 6.93-7.3 1.73-20.6 2.66-65.65 2.7v-30.36l26.35 0.02c17.83 0.01 29.23-0.83 35.28-2.59 4.91-1.43 12.55-5.33 16.97-8.68 4.42-3.34 10.19-10.01 12.83-14.83 2.63-4.81 5.61-13.98 6.61-20.36 1.25-8.01 1.24-14.66-0.06-21.44-1.04-5.4-3.41-12.84-5.28-16.52-1.86-3.68-6.4-9.98-10.08-13.99-3.69-4.01-11.12-9.44-16.53-12.06-9.67-4.69-10.44-4.77-92.88-5.65l-0.01 91.54c-0.01 53.72-0.77 96.34-1.85 103.15-1 6.39-3.8 17.64-6.21 25.01-2.4 7.36-7.27 18.22-10.8 24.11-3.54 5.89-9.85 14.74-14.03 19.65-4.18 4.91-12.75 13.06-19.05 18.1-6.3 5.04-16.68 12.01-23.07 15.47-6.38 3.47-18.04 8.31-25.9 10.75-7.86 2.45-21.92 5.37-31.26 6.5-12.28 1.48-21.16 1.52-32.15 0.15-8.35-1.04-19.6-3.14-25-4.67-5.41-1.53-11.23-3.13-12.95-3.55-1.72-0.43-3.13-1.18-3.13-1.67 0-0.49 5.02-6.38 22.33-25.29l10.72 2.56c7.36 1.76 16.59 2.29 29.47 1.69 14.09-0.66 22.53-2.14 33.93-5.94 8.48-2.82 20.71-8.74 27.69-13.38 6.88-4.58 16.52-12.68 21.43-17.99 4.92-5.32 11.9-15.27 15.53-22.1 3.63-6.84 8.05-17.66 9.82-24.04 2.99-10.74 3.19-19.85 2.64-121.02zm-263.71 53.31l5.63 1.15c3.1 0.64 9.85 2.31 24.38 6.27l0.03 77.26c0.03 61.49 0.58 79.8 2.69 89.75 1.46 6.88 5.87 18.94 9.8 26.8 6.68 13.35 6.94 14.44 4.01 16.66-1.72 1.31-7.75 4.73-23.67 12.81l-4.87-8.49c-2.68-4.66-6.77-13.71-9.09-20.09-2.31-6.39-5.35-17.44-6.74-24.56-1.97-10.11-2.48-31.02-2.34-95.26z"/>
	</g>
</svg>